<?xml version="1.0" standalone="no"?>
<!DOCTYPE svg PUBLIC "-//W3C//DTD SVG 20010904//EN"
 "http://www.w3.org/TR/2001/REC-SVG-20010904/DTD/svg10.dtd">
<svg version="1.0" xmlns="http://www.w3.org/2000/svg"
 width="1024.000000pt" height="1024.000000pt" viewBox="0 0 1024.000000 1024.000000"
 preserveAspectRatio="xMidYMid meet">

<g transform="translate(0.000000,1024.000000) scale(0.100000,-0.100000)"
fill="#000000" stroke="none">
<path d="M4860 8505 c-8 -2 -55 -9 -105 -15 -427 -56 -877 -226 -1245 -472
-194 -129 -290 -207 -446 -362 -139 -139 -205 -218 -321 -380 -314 -440 -499
-970 -529 -1513 l-7 -123 155 0 c135 0 157 -2 171 -17 41 -47 28 -124 -25
-142 -17 -6 -91 -11 -164 -11 l-134 0 6 -77 c14 -194 53 -427 99 -590 319
-1126 1280 -1932 2488 -2088 156 -20 213 -20 221 1 3 9 6 75 6 148 0 145 4
157 61 171 21 5 94 -14 101 -27 0 -2 4 -70 7 -153 l6 -150 44 -3 c57 -4 261
22 421 54 1068 212 1926 982 2229 2002 59 198 111 497 111 640 l0 72 -139 0
c-131 0 -141 1 -165 23 -35 31 -41 74 -16 115 l20 32 150 0 c127 0 152 2 157
16 9 24 -16 284 -43 444 -152 906 -733 1683 -1573 2106 -239 120 -552 224
-814 269 -118 20 -349 40 -370 32 -15 -6 -17 -25 -17 -166 0 -151 -1 -161 -21
-180 -12 -11 -34 -23 -50 -26 -31 -7 -83 15 -93 40 -3 9 -6 83 -6 164 0 101
-4 151 -12 159 -11 11 -115 15 -158 7z m438 -536 c712 -51 1411 -464 1817
-1074 133 -199 223 -392 298 -635 76 -246 103 -467 94 -754 -9 -263 -42 -445
-126 -686 -264 -762 -945 -1357 -1748 -1526 -76 -16 -83 -16 -107 0 -57 36
-70 121 -27 160 11 10 69 31 129 47 410 109 736 290 1031 574 310 299 525 690
605 1102 14 73 29 164 32 202 l7 71 -126 0 c-123 0 -127 -1 -131 -22 -2 -13
-13 -82 -24 -153 -25 -161 -83 -338 -157 -487 -93 -185 -119 -218 -174 -218
-20 0 -344 262 -385 311 -38 45 -34 89 18 200 88 190 125 405 105 606 -6 65
-14 140 -16 166 -4 40 -1 53 17 72 23 25 100 51 124 42 46 -18 72 -122 82
-322 10 -200 -28 -412 -106 -599 l-29 -69 46 -41 c25 -22 63 -53 84 -68 l38
-28 21 48 c159 353 197 697 119 1075 -11 53 -17 107 -14 118 15 45 107 74 155
49 37 -20 78 -183 98 -395 l7 -80 124 -3 124 -3 -6 103 c-23 361 -158 745
-373 1053 -380 547 -993 908 -1631 961 l-83 7 0 -204 c0 -112 -4 -209 -8 -216
-14 -21 -62 -33 -140 -33 -150 0 -373 -44 -539 -106 -357 -133 -647 -360 -866
-677 -342 -495 -366 -1221 -58 -1742 22 -38 41 -81 41 -95 0 -73 -118 -132
-170 -85 -31 28 -147 265 -189 387 -34 101 -73 267 -96 411 l-6 37 -124 0
-125 0 0 -34 c0 -122 69 -423 136 -593 113 -288 271 -521 510 -753 234 -227
461 -374 747 -485 192 -74 404 -121 625 -139 68 -6 72 -5 72 15 0 36 19 58 61
69 71 19 120 -3 134 -62 4 -17 14 -28 24 -28 28 0 62 -45 68 -89 7 -50 -14
-87 -62 -107 -18 -7 -36 -22 -39 -32 -6 -19 -39 -40 -66 -43 -50 -5 -75 3
-104 34 -30 32 -35 34 -151 46 -250 26 -446 69 -640 143 -527 200 -996 613
-1258 1108 -111 209 -196 457 -238 695 -31 171 -37 508 -14 698 43 359 165
688 372 1000 318 481 799 834 1357 993 292 83 521 106 834 83z m368 -523 c188
-64 376 -157 538 -265 170 -113 401 -323 427 -388 17 -45 -29 -104 -91 -118
-40 -9 -75 14 -170 111 -82 82 -193 173 -299 244 -69 46 -278 154 -318 165
l-23 6 0 -141 c0 -136 -1 -142 -25 -165 -33 -33 -60 -32 -157 10 -17 7 -18 -3
-18 -115 0 -121 0 -122 -29 -151 -51 -51 -137 -33 -160 33 -6 17 -11 82 -11
143 0 98 -2 114 -17 119 -10 4 -127 6 -260 5 -242 -2 -243 -2 -263 21 -24 28
-27 96 -5 127 22 32 97 44 300 50 137 4 206 1 288 -11 59 -9 113 -16 120 -16
9 0 12 41 13 156 2 170 8 189 63 197 14 2 26 5 27 6 0 0 32 -10 70 -23z
m-1130 -461 c66 -46 46 -133 -41 -174 -176 -84 -340 -217 -458 -373 -105 -139
-115 -169 -62 -182 38 -10 129 -69 149 -97 26 -37 20 -86 -13 -120 -38 -37
-71 -37 -141 2 -30 17 -89 49 -130 71 -120 65 -134 84 -118 161 17 79 208 340
348 475 75 72 206 167 297 213 80 42 134 50 169 24z m1620 -179 c44 -44 48
-108 9 -155 -50 -59 -155 -49 -190 19 -26 50 -20 97 19 136 29 29 41 34 81 34
40 0 52 -5 81 -34z m-1245 -46 c21 0 59 -54 59 -82 0 -65 -29 -91 -125 -113
-200 -46 -370 -158 -537 -352 -34 -40 -40 -43 -86 -43 -54 0 -74 15 -93 68
-16 46 8 86 114 192 92 92 194 170 298 227 101 56 305 119 347 107 8 -2 18 -4
23 -4z m855 -146 c54 -26 194 -153 289 -264 47 -55 92 -100 99 -100 15 0 126
49 126 56 0 2 -18 27 -39 55 -58 76 -60 127 -8 169 58 48 119 27 183 -63 21
-29 41 -56 45 -61 4 -5 73 26 154 68 156 81 200 92 241 58 27 -23 44 -55 44
-82 0 -58 -18 -70 -343 -234 -285 -145 -320 -160 -376 -164 -102 -7 -151 18
-236 123 -46 57 -195 208 -273 275 -46 40 -52 51 -52 84 0 28 7 45 29 67 34
33 66 37 117 13z m-461 -121 c194 -44 373 -155 487 -302 112 -147 171 -306
185 -498 l6 -93 96 0 c112 0 139 -11 164 -63 15 -31 17 -43 7 -71 -21 -63 -39
-71 -161 -69 l-109 2 0 -69 c0 -68 -8 -86 -46 -108 -8 -5 -19 -34 -24 -69 -34
-208 -136 -387 -272 -474 l-52 -34 -188 -3 -188 -4 0 -164 0 -164 24 0 c103 0
153 -99 87 -172 -29 -32 -30 -32 -135 -36 -58 -2 -117 -1 -131 2 -53 13 -55
31 -55 458 0 383 -1 394 -21 428 -12 19 -27 38 -33 42 -6 4 -119 8 -252 8
-234 0 -242 1 -275 23 -47 31 -86 93 -119 190 -41 119 -53 221 -48 410 5 138
9 175 32 252 129 430 570 679 1021 578z m-1535 -555 c53 -37 55 -44 40 -171
-13 -117 -9 -312 8 -372 5 -19 16 -31 29 -33 11 -2 33 -17 49 -33 38 -40 41
-105 6 -142 -26 -28 -146 -71 -183 -65 -35 5 -64 67 -91 193 -20 94 -23 139
-23 310 0 268 19 335 94 335 23 0 51 -9 71 -22z m269 -986 c20 -20 61 -64 90
-96 83 -89 226 -212 323 -277 95 -64 108 -80 108 -132 0 -27 -7 -41 -31 -61
-37 -32 -67 -33 -122 -5 -47 24 -172 107 -228 151 -20 15 -41 28 -46 28 -5 0
-88 -68 -184 -151 -193 -168 -222 -189 -260 -189 -61 0 -113 82 -89 140 7 16
38 51 70 77 98 82 310 274 310 282 0 4 -21 27 -46 51 -83 82 -97 141 -43 191
47 44 100 41 148 -9z m717 -88 c122 -80 14 -266 -115 -199 -30 15 -61 68 -61
103 0 85 105 142 176 96z m1367 -92 c54 -36 380 -357 393 -387 14 -35 6 -94
-18 -122 -24 -29 -194 -161 -295 -228 -176 -118 -422 -225 -638 -279 -127 -32
-281 -49 -440 -49 -321 -1 -612 68 -900 213 -233 117 -288 177 -238 260 18 31
51 50 86 50 12 0 53 -21 91 -46 170 -114 413 -210 633 -249 515 -91 1003 33
1411 359 34 27 62 53 62 57 0 10 -182 179 -192 179 -5 0 -49 -34 -98 -75 -102
-84 -225 -170 -275 -191 -65 -27 -135 26 -135 101 0 49 12 61 140 146 41 27
126 95 189 151 155 139 169 146 224 110z"/>
<path d="M4905 7763 c-138 -12 -392 -73 -541 -129 -301 -112 -539 -263 -772
-489 -327 -316 -541 -703 -626 -1135 -25 -126 -49 -337 -40 -352 3 -4 61 -8
130 -8 l124 0 0 58 c0 150 46 388 106 549 256 689 912 1186 1647 1249 l78 7
-3 126 -3 126 -30 1 c-16 1 -48 -1 -70 -3z"/>
<path d="M5013 6309 c-207 -24 -396 -159 -490 -349 -42 -84 -73 -201 -73 -275
l0 -35 159 0 159 0 4 138 c3 123 6 142 28 182 32 56 90 97 159 110 29 5 186
10 347 10 173 0 294 4 294 9 0 29 -161 137 -261 175 -57 21 -95 28 -219 40
-19 2 -68 0 -107 -5z"/>
<path d="M5003 5883 c-22 -4 -23 -8 -23 -119 l0 -114 176 0 175 0 25 30 c32
38 80 47 127 25 19 -9 39 -27 46 -41 7 -17 11 -111 11 -282 l0 -258 -27 -32
c-19 -22 -40 -35 -65 -39 -33 -5 -41 -2 -73 30 l-35 35 0 161 0 161 -440 0
c-419 0 -440 -1 -440 -18 0 -38 31 -122 56 -152 l26 -30 198 0 c257 0 289 -7
356 -76 64 -65 94 -138 101 -246 l6 -78 164 0 164 0 47 48 c75 75 121 183 142
332 8 59 16 80 38 103 l27 28 -2 172 c-1 115 -7 198 -18 252 -27 128 17 115
-388 114 -194 -1 -362 -4 -374 -6z"/>
<path d="M2338 2310 c-83 -25 -133 -100 -126 -190 7 -91 47 -129 185 -169 112
-33 134 -72 59 -101 -33 -12 -70 -3 -149 37 -39 20 -51 22 -70 12 -29 -16 -37
-28 -37 -60 0 -62 116 -130 224 -131 163 -1 262 116 216 255 -17 53 -56 80
-159 112 -99 31 -132 55 -115 83 15 23 83 27 129 8 50 -21 71 -20 106 5 82 58
-27 150 -175 148 -34 0 -73 -4 -88 -9z"/>
<path d="M2885 2310 l-190 -5 -13 -28 c-17 -35 -4 -77 29 -94 13 -7 51 -13 83
-13 l59 0 -6 -190 c-3 -107 -1 -205 4 -224 15 -53 81 -70 127 -34 9 8 12 66
12 228 l0 217 65 6 c78 6 105 25 105 73 0 34 -21 64 -45 64 -7 0 -19 1 -27 3
-7 1 -98 0 -203 -3z"/>
<path d="M3938 2311 c-81 -4 -152 -11 -157 -16 -8 -8 -15 -332 -11 -527 0 -54
15 -58 211 -58 169 0 180 1 200 21 16 16 20 28 15 51 -10 51 -29 57 -158 58
l-118 0 0 50 0 50 104 0 c97 0 106 2 120 22 21 30 20 71 -2 91 -15 14 -40 17
-120 17 l-102 0 0 55 0 54 121 3 c118 3 123 4 141 29 27 36 15 77 -28 95 -18
8 -41 13 -51 12 -10 -1 -84 -4 -165 -7z"/>
<path d="M5335 2308 c-81 -29 -125 -92 -125 -179 0 -92 47 -137 187 -178 89
-27 110 -44 90 -75 -23 -34 -82 -33 -162 3 -80 37 -79 37 -105 11 -70 -70 57
-182 208 -182 37 0 80 6 97 12 85 33 143 117 131 192 -14 88 -56 125 -191 168
-83 26 -115 52 -99 78 15 23 93 28 133 8 16 -9 41 -16 54 -16 32 0 77 36 77
62 0 29 -60 84 -105 97 -50 14 -150 13 -190 -1z"/>
<path d="M5772 2313 c-12 -2 -27 -14 -33 -25 -6 -12 -13 -114 -16 -252 -6
-264 0 -308 46 -324 32 -11 76 -5 90 12 6 7 12 80 13 162 l3 149 70 -105 c93
-140 98 -140 179 -3 34 56 64 102 69 103 4 0 7 -64 7 -142 0 -79 4 -148 8
-155 12 -18 55 -32 85 -26 54 11 57 24 57 303 0 281 -2 292 -60 305 -64 14
-92 -7 -175 -132 -42 -63 -80 -111 -85 -107 -4 5 -40 58 -79 117 -82 123 -100
135 -179 120z"/>
<path d="M6645 2311 c-29 -12 -39 -27 -68 -101 -15 -36 -60 -148 -102 -250
-41 -102 -75 -195 -75 -206 0 -35 28 -49 97 -45 28 1 60 35 68 72 l7 29 108 0
109 0 24 -47 c28 -57 73 -76 123 -52 25 13 29 20 28 54 -1 45 -184 498 -213
528 -20 21 -77 30 -106 18z m71 -296 c13 -32 24 -60 24 -62 0 -2 -25 -3 -56
-3 -41 0 -55 3 -52 13 3 6 13 36 23 65 11 29 23 51 28 49 5 -1 20 -29 33 -62z"/>
<path d="M7748 2311 c-190 -6 -208 -10 -210 -47 -5 -66 29 -94 112 -94 l50 0
0 -208 c0 -224 4 -243 54 -256 27 -7 76 8 88 27 4 7 8 108 8 225 0 228 -2 220
49 212 8 -1 34 1 58 5 34 5 46 12 58 36 14 27 14 33 -1 64 -9 19 -21 35 -28
35 -6 0 -20 2 -31 3 -11 2 -104 1 -207 -2z"/>
<path d="M3226 2294 c-24 -23 -24 -545 0 -568 37 -37 107 -26 124 19 6 15 10
56 10 91 l0 65 33 -3 c28 -3 40 -14 95 -95 52 -77 68 -93 90 -94 75 -3 112 9
112 35 0 7 -25 50 -55 96 l-56 83 36 30 c50 41 68 81 68 152 0 93 -39 158
-116 190 -53 22 -319 22 -341 -1z m284 -139 c26 -24 27 -78 0 -105 -16 -16
-33 -20 -85 -20 l-65 0 0 68 c0 38 3 72 8 76 14 15 120 1 142 -19z"/>
<path d="M4274 2296 c-18 -14 -19 -30 -22 -276 -2 -225 -1 -266 13 -286 15
-24 17 -24 195 -24 l179 0 20 26 c26 33 26 45 0 78 -20 25 -23 26 -134 26
-124 0 -125 0 -125 66 l0 34 108 0 c122 0 142 10 142 67 0 48 -23 60 -135 67
-55 3 -101 6 -102 6 -2 0 -3 23 -3 50 l0 50 113 0 c101 0 116 2 132 20 24 27
24 79 0 96 -28 20 -353 20 -381 0z"/>
<path d="M4717 2292 c-22 -25 -21 -64 2 -93 17 -21 28 -24 83 -24 l63 0 5
-225 c3 -124 7 -226 8 -226 22 -15 67 -25 87 -20 44 11 49 37 53 257 l4 207
60 4 c68 5 98 29 98 78 0 56 -16 60 -242 60 -186 0 -206 -2 -221 -18z"/>
<path d="M7036 2288 c-14 -19 -16 -63 -16 -283 0 -143 4 -265 8 -272 12 -18
62 -34 86 -27 46 14 56 33 56 109 0 57 3 74 16 79 37 14 53 5 95 -61 70 -111
84 -123 145 -123 46 0 84 16 84 36 0 3 -25 41 -55 85 -30 44 -55 84 -55 88 0
4 14 18 31 30 108 80 81 285 -45 342 -34 15 -66 19 -188 19 -141 0 -148 -1
-162 -22z m286 -136 c29 -29 28 -79 -1 -104 -17 -13 -40 -18 -87 -18 l-64 0 0
68 c0 38 3 72 8 76 4 4 33 6 65 4 42 -3 64 -10 79 -26z"/>
</g>
</svg>
